# Blender 3.4.0
# www.blender.org
mtllib stall 1.mtl
o table
v -1.866390 1.811705 0.867053
v -1.866390 1.638295 -0.867053
v 1.866390 1.811705 0.867053
v 1.866390 1.638295 -0.867053
v -2.000000 1.606898 1.000000
v -2.000000 1.445519 -1.000000
v 2.000000 1.445519 -1.000000
v 2.000000 1.606898 1.000000
v -2.000000 1.800000 1.000000
v -2.000000 1.600000 -1.000000
v 2.000000 1.600000 -1.000000
v 2.000000 1.800000 1.000000
v -1.888010 1.863857 0.888566
v -1.888010 1.686144 -0.888566
v 1.888010 1.686144 -0.888566
v 1.888010 1.863857 0.888566
v -1.729290 -0.002629 0.729290
v -1.729290 1.623746 0.729290
v -1.729290 -0.002629 0.470710
v -1.729290 1.623746 0.470710
v -1.470710 -0.002629 0.729290
v -1.470710 1.623746 0.729290
v -1.470710 -0.002629 0.470710
v -1.470710 1.623746 0.470710
v 1.729290 -0.002629 0.729290
v 1.729290 1.623746 0.729290
v 1.729290 -0.002629 0.470710
v 1.729290 1.623746 0.470710
v 1.470710 -0.002629 0.729290
v 1.470710 1.623746 0.729290
v 1.470710 -0.002629 0.470710
v 1.470710 1.623746 0.470710
v -1.729290 -0.002629 -0.729290
v -1.729290 1.623746 -0.729290
v -1.729290 -0.002629 -0.470710
v -1.729290 1.623746 -0.470710
v -1.470710 -0.002629 -0.729290
v -1.470710 1.623746 -0.729290
v -1.470710 -0.002629 -0.470710
v -1.470710 1.623746 -0.470710
v 1.729290 -0.002629 -0.729290
v 1.729290 1.623746 -0.729290
v 1.729290 -0.002629 -0.470710
v 1.729290 1.623746 -0.470710
v 1.470710 -0.002629 -0.729290
v 1.470710 1.623746 -0.729290
v 1.470710 -0.002629 -0.470710
v 1.470710 1.623746 -0.470710
vn -1.0000 -0.0000 -0.0000
vn -0.0000 -0.0000 -1.0000
vn 1.0000 -0.0000 -0.0000
vn -0.0000 -0.0000 1.0000
vn -0.0000 0.9950 -0.0995
vn -0.0000 -0.9968 0.0804
vn -0.5545 0.8280 -0.0828
vn -0.0000 0.7912 -0.6116
vn 0.5545 0.8280 -0.0828
vn -0.0000 0.8676 0.4972
vn 0.9171 0.3966 -0.0397
vn -0.0000 0.4101 0.9121
vn -0.9171 0.3966 -0.0397
vn -0.0000 0.3813 -0.9244
vn -0.0000 -1.0000 -0.0000
vn -0.0000 1.0000 -0.0000
vt 0.866649 0.733382
vt 0.866650 0.516618
vt 0.633351 0.733382
vt 0.633351 0.516618
vt 0.600862 1.000000
vt 0.600862 0.000000
vt 0.600862 0.250000
vt 0.600862 0.500000
vt 0.600862 0.750000
vt 0.625000 0.000000
vt 0.625000 1.000000
vt 0.875000 0.750000
vt 0.625000 0.250000
vt 0.875000 0.500000
vt 0.625000 0.500000
vt 0.625000 0.750000
vt 0.868001 0.736071
vt 0.868001 0.513929
vt 0.631999 0.513929
vt 0.631999 0.736071
vt 0.375000 0.000000
vt 0.375000 1.000000
vt 0.125000 0.750000
vt 0.625000 0.000000
vt 0.625000 1.000000
vt 0.875000 0.750000
vt 0.375000 0.250000
vt 0.125000 0.500000
vt 0.625000 0.250000
vt 0.875000 0.500000
vt 0.375000 0.750000
vt 0.625000 0.750000
vt 0.375000 0.500000
vt 0.625000 0.500000
vt 0.375000 0.000000
vt 0.375000 1.000000
vt 0.125000 0.750000
vt 0.625000 0.000000
vt 0.625000 1.000000
vt 0.875000 0.750000
vt 0.375000 0.250000
vt 0.125000 0.500000
vt 0.625000 0.250000
vt 0.875000 0.500000
vt 0.375000 0.750000
vt 0.625000 0.750000
vt 0.375000 0.500000
vt 0.625000 0.500000
vt 0.375000 0.000000
vt 0.375000 1.000000
vt 0.125000 0.750000
vt 0.625000 0.000000
vt 0.625000 1.000000
vt 0.875000 0.750000
vt 0.375000 0.250000
vt 0.125000 0.500000
vt 0.625000 0.250000
vt 0.875000 0.500000
vt 0.375000 0.750000
vt 0.625000 0.750000
vt 0.375000 0.500000
vt 0.625000 0.500000
vt 0.375000 0.000000
vt 0.375000 1.000000
vt 0.125000 0.750000
vt 0.625000 0.000000
vt 0.625000 1.000000
vt 0.875000 0.750000
vt 0.375000 0.250000
vt 0.125000 0.500000
vt 0.625000 0.250000
vt 0.875000 0.500000
vt 0.375000 0.750000
vt 0.625000 0.750000
vt 0.375000 0.500000
vt 0.625000 0.500000
s 0
f 5/6/1 9/10/1 10/13/1 6/7/1
f 6/7/2 10/13/2 11/15/2 7/8/2
f 7/8/3 11/15/3 12/16/3 8/9/3
f 8/9/4 12/16/4 9/11/4 5/5/4
f 4/4/5 2/2/5 1/1/5 3/3/5
f 5/6/6 6/7/6 7/8/6 8/9/6
f 13/17/7 14/18/7 10/14/7 9/12/7
f 14/18/8 15/19/8 11/15/8 10/14/8
f 15/19/9 16/20/9 12/16/9 11/15/9
f 16/20/10 13/17/10 9/12/10 12/16/10
f 1/1/11 2/2/11 14/18/11 13/17/11
f 2/2/12 4/4/12 15/19/12 14/18/12
f 4/4/13 3/3/13 16/20/13 15/19/13
f 3/3/14 1/1/14 13/17/14 16/20/14
f 17/21/1 18/24/1 20/29/1 19/27/1
f 19/27/2 20/29/2 24/34/2 23/33/2
f 23/33/3 24/34/3 22/32/3 21/31/3
f 21/31/4 22/32/4 18/25/4 17/22/4
f 19/28/15 23/33/15 21/31/15 17/23/15
f 24/34/16 20/30/16 18/26/16 22/32/16
f 25/35/3 27/41/3 28/43/3 26/38/3
f 27/41/2 31/47/2 32/48/2 28/43/2
f 31/47/1 29/45/1 30/46/1 32/48/1
f 29/45/4 25/36/4 26/39/4 30/46/4
f 27/42/15 25/37/15 29/45/15 31/47/15
f 32/48/16 30/46/16 26/40/16 28/44/16
f 33/49/1 35/55/1 36/57/1 34/52/1
f 35/55/4 39/61/4 40/62/4 36/57/4
f 39/61/3 37/59/3 38/60/3 40/62/3
f 37/59/2 33/50/2 34/53/2 38/60/2
f 35/56/15 33/51/15 37/59/15 39/61/15
f 40/62/16 38/60/16 34/54/16 36/58/16
f 41/63/3 42/66/3 44/71/3 43/69/3
f 43/69/4 44/71/4 48/76/4 47/75/4
f 47/75/1 48/76/1 46/74/1 45/73/1
f 45/73/2 46/74/2 42/67/2 41/64/2
f 43/70/15 47/75/15 45/73/15 41/65/15
f 48/76/16 44/72/16 42/68/16 46/74/16
